<svg id="Layer_1" data-name="Layer 1" xmlns="http://www.w3.org/2000/svg" viewBox="0 0 650 520"><defs><style>.cls-1{fill:#707070;}</style></defs><title>shopping-cart2</title><g id="group_2" data-name="group 2"><g id="shape"><path class="cls-1" d="M400,845q0-395-150-495Q375,475,400,845Zm5-20q245-75,495,0Q650,785,405,825Zm95-5c-30,5-30,50,5,50s35-45,5-50c20,10,20,40-5,40S480,830,500,820Zm250,0c-30,5-30,50,5,50s35-45,5-50c20,10,20,40-5,40S730,830,750,820Z" transform="translate(-250 -350)"/></g><g id="grid_1" data-name="grid 1"><path class="cls-1" d="M400,750q225-100,450-25Q625,675,400,750ZM385,625q255-100,505-20Q640,550,385,625ZM360,500q290-100,540-25Q650,425,360,500Z" transform="translate(-250 -350)"/></g><g id="grid_2" data-name="grid 2"><path class="cls-1" d="M525,730q45-155-15-282.5Q550,575,525,730Zm150-12.5Q735,575,695,430,715,575,675,717.5ZM830,730q70-130,55-270A829.41,829.41,0,0,1,830,730Z" transform="translate(-250 -350)"/></g></g></svg>